<svg width="108" height="76" viewBox="0 0 108 76" fill="none" xmlns="http://www.w3.org/2000/svg">
<path d="M14.163 74.0446H0V61.034H13.637C15.5905 61.034 17.1684 62.5005 17.1684 64.4559C17.1684 65.2831 16.8678 66.0352 16.417 66.6368C17.5065 67.3513 18.2202 68.5922 18.2202 70.0211C18.2202 72.2397 16.3794 74.0446 14.163 74.0446ZM13.637 63.027H1.99108V65.96H13.7497C14.4635 65.96 15.1397 65.2455 15.1397 64.4183C15.1773 63.5534 14.4635 63.027 13.637 63.027ZM14.163 67.9905H2.02865V72.0517H14.163C15.2524 72.0517 16.1916 71.1116 16.1916 70.0211C16.1916 68.893 15.2524 67.9905 14.163 67.9905ZM38.0935 76V74.0446H21.2632V61.034H23.2543V72.0517H36.3654V61.034H38.3564V72.0517H40.0094V76H38.0935ZM57.8916 74.0446V63.6662L44.7805 74.0446H42.7894V61.034H44.7805V71.4124L57.8916 61.034H59.8826V74.0446H57.8916ZM76.0742 74.0446H69.4999C65.8559 74.0446 62.9256 71.1116 62.9256 67.4641C62.9256 63.8542 65.8559 61.034 69.4999 61.034H76.0742C79.6807 61.034 82.6486 63.8542 82.6486 67.4641C82.6486 71.1116 79.7183 74.0446 76.0742 74.0446ZM76.0742 63.027H69.4999C66.9829 63.027 64.9542 64.9823 64.9542 67.4641C64.9542 69.9835 66.9829 72.0517 69.4999 72.0517H76.0742C78.5537 72.0517 80.6199 69.9835 80.6199 67.4641C80.6199 64.9823 78.5913 63.027 76.0742 63.027ZM105.903 74.0446V63.6662C96.8115 70.8484 96.8115 70.8484 96.774 70.8484L87.7202 63.6662V74.0446H85.7291V61.034H87.7202L96.8115 68.2162L105.94 61.034H107.931V74.0446H105.903Z" fill="#00A48A"/>
<path d="M55.6751 4.92597C54.9988 3.27145 53.947 1.84254 52.6321 0.676852L51.8432 0L51.0543 0.676852C49.7018 1.84254 48.6875 3.27145 47.9737 4.96358C46.2832 9.06229 47.1097 13.6874 50.0024 16.9213C49.5891 17.1845 49.1383 17.4477 48.6499 17.6357C48.1991 17.8238 47.7107 17.9742 47.2224 18.087C46.997 13.7626 44.3297 9.92715 40.2724 8.23503C38.8824 7.67098 37.4548 7.37016 35.9521 7.37016C35.6516 7.37016 35.3886 7.37016 35.0881 7.40776H33.9986L33.9235 8.46064C33.7732 10.228 34.0737 11.9953 34.75 13.6498C36.5156 17.9366 40.6105 20.6816 45.1937 20.6816C45.4567 20.6816 45.7572 20.6816 46.0202 20.644C47.2224 20.5688 48.387 20.2679 49.514 19.8167C50.641 19.3655 51.6553 18.7262 52.557 17.9366C56.3137 14.7027 57.5534 9.47592 55.6751 4.92597ZM37.004 12.7098C36.5908 11.7321 36.3654 10.7544 36.3278 9.70154C37.3421 9.73914 38.3189 9.96476 39.2956 10.3784C42.5264 11.7321 44.6302 14.7779 44.7805 18.2374C41.3618 18.087 38.3189 15.9436 37.004 12.7098ZM51.8056 15.3044C49.514 12.7474 48.8378 9.09989 50.1902 5.82844C50.6035 4.85077 51.1294 3.9859 51.8056 3.23385C52.4818 3.9859 53.0453 4.85077 53.421 5.82844C54.7734 9.09989 54.0972 12.7474 51.8056 15.3044ZM46.3583 27.6381C45.9075 26.51 45.2689 25.4947 44.4799 24.5547C42.3386 22.0353 39.1829 20.6064 35.9145 20.6064C34.4118 20.6064 32.9843 20.9072 31.5943 21.4712C29.9413 22.1481 28.5137 23.201 27.3492 24.5547L26.6354 25.3443L27.3116 26.134C28.4762 27.4877 29.9037 28.5406 31.5567 29.2174C32.9467 29.7815 34.4118 30.0823 35.877 30.0823C38.657 30.0823 41.3618 29.0294 43.3905 27.1869C43.6535 27.6005 43.8789 28.0517 44.0667 28.5406C44.4048 29.4054 44.7805 30.3455 44.7805 31.3232V50.1246H21.3008V52.4936H47.1848V31.1728C47.1097 29.9319 46.8091 28.7662 46.3583 27.6381ZM35.877 27.6757C34.7124 27.6757 33.5854 27.4501 32.4959 26.9989C31.5567 26.5852 30.6927 26.0588 29.9413 25.3443C30.6927 24.6675 31.5567 24.1034 32.4959 23.6898C33.5854 23.2386 34.7124 23.013 35.877 23.013C38.0935 23.013 40.2348 23.8402 41.8502 25.3443C40.2348 26.8108 38.0935 27.6757 35.877 27.6757ZM58.8683 31.2856C58.9434 30.3455 59.1688 29.443 59.5069 28.5406C59.6948 28.0893 59.9202 27.6381 60.2207 27.1869C62.2869 29.0294 64.9542 30.0823 67.7342 30.0823C69.2369 30.0823 70.6645 29.7815 72.0545 29.2174C73.7075 28.5406 75.135 27.4877 76.2996 26.134L76.9758 25.3443L76.2996 24.5547C75.135 23.201 73.7075 22.1481 72.0545 21.4712C70.6645 20.9072 69.1994 20.6064 67.7342 20.6064C64.9542 20.6064 62.2494 21.6592 60.2207 23.5018C59.9578 23.0882 59.7324 22.6369 59.5069 22.1481C59.3191 21.6592 59.1688 21.1704 59.0561 20.6816C63.3764 20.4184 67.1707 17.7485 68.8613 13.6498C69.5375 11.9953 69.838 10.228 69.6878 8.46064L69.6126 7.40776L68.5607 7.33256C68.2602 7.29495 67.9972 7.29495 67.6967 7.29495C66.194 7.29495 64.7664 7.59578 63.3764 8.15982C58.8683 10.04 56.0507 14.6275 56.4264 19.5159V19.5535C56.5015 20.7568 56.8021 21.9225 57.2529 23.0506C57.591 23.8778 58.0042 24.6299 58.5302 25.3443C58.0042 26.0588 57.591 26.8108 57.2529 27.6381C56.8021 28.7662 56.5015 29.9319 56.4264 31.1728V52.5312H82.3104V50.1622H58.8683V31.2856ZM67.7342 23.013C68.8988 23.013 70.0259 23.2386 71.1153 23.6898C72.0545 24.1034 72.9186 24.6299 73.6699 25.3443C72.9186 26.0212 72.0545 26.5852 71.1153 26.9989C70.0259 27.4501 68.8988 27.6757 67.7342 27.6757C65.5178 27.6757 63.3764 26.8484 61.761 25.3443C63.414 23.8402 65.5178 23.013 67.7342 23.013ZM64.3532 10.3784C65.2924 9.96476 66.3067 9.73914 67.321 9.70154C67.2834 10.7168 67.058 11.7321 66.6448 12.7098C65.3299 15.9436 62.2869 18.0494 58.8683 18.2374C59.0186 14.8155 61.1224 11.7321 64.3532 10.3784Z" fill="#00A48A"/>
</svg>
